<?xml version="1.0" encoding="utf-8"?>
<!-- Generator: Adobe Illustrator 27.0.0, SVG Export Plug-In . SVG Version: 6.00 Build 0)  -->
<svg version="1.1" id="Layer_1" xmlns="http://www.w3.org/2000/svg" xmlns:xlink="http://www.w3.org/1999/xlink" x="0px" y="0px"
	 viewBox="0 0 129 32" style="enable-background:new 0 0 129 32;" xml:space="preserve">
<style type="text/css">
	.st0{display:none;}
	.st1{display:none;fill-rule:evenodd;clip-rule:evenodd;fill:#A53737;stroke:#FFFFFF;stroke-width:6.100000e-02;}
</style>
<path class="st0" d="M129,0H0v32h129V0z"/>
<path class="st1" d="M24.1,17.3h-4v1.9c0,0.4,0,0.8,0,1.2c0,0.2,0.1,0.3,0.2,0.4c0.2,0.1,0.5,0.2,0.7,0.1h0.2v0.3h-3.5v-0.3H18
	c0.2,0,0.5,0,0.7-0.1c0.1-0.1,0.2-0.2,0.2-0.4c0-0.4,0.1-0.8,0.1-1.2v-3.8c0-0.4,0-0.8-0.1-1.2c0-0.1-0.1-0.3-0.2-0.4
	c-0.2-0.1-0.5-0.1-0.8-0.1h-0.1v-0.3h3.5v0.3h-0.1c-0.3,0-0.5,0-0.7,0.1c-0.1,0.1-0.2,0.2-0.2,0.3c0,0.4-0.1,0.8-0.1,1.2v1.5h4v-1.5
	c0-0.4,0-0.8-0.1-1.2c0-0.2-0.1-0.3-0.2-0.4c-0.2-0.1-0.5-0.1-0.8-0.1h-0.2v-0.3h3.5v0.3h-0.1c-0.2,0-0.5,0-0.7,0.1
	c-0.1,0.1-0.2,0.2-0.2,0.3c-0.1,0.4-0.1,0.8-0.1,1.2v3.8c0,0.6,0,1,0,1.2c0,0.2,0.1,0.3,0.2,0.4c0.2,0.1,0.5,0.2,0.7,0.1h0.2v0.3
	h-3.5v-0.3h0.3c0.2,0,0.5,0,0.7-0.1c0.1-0.1,0.2-0.2,0.2-0.4c0-0.4,0.1-0.8,0.1-1.2L24.1,17.3L24.1,17.3z M28.4,17.2
	c0-1.1,0.4-2.1,1.2-2.9c0.8-0.7,1.9-1.1,3-1.1c1.1,0,2.2,0.3,3,1.1c0.4,0.4,0.7,0.8,0.9,1.3c0.2,0.5,0.3,1,0.3,1.6
	c0,1.1-0.4,2.1-1.2,2.9c-0.9,0.7-1.9,1.1-3,1.1c-1.1,0-2.2-0.4-3-1.1C28.8,19.4,28.4,18.3,28.4,17.2z M29.7,17.3
	c0,1.2,0.2,2.2,0.7,2.8c0.5,0.6,1.2,0.9,2.2,0.9c0.8,0,1.6-0.3,2.1-0.9c0.5-0.6,0.8-1.5,0.8-2.8c0-1.2-0.2-2.1-0.8-2.7
	c-0.5-0.7-1.3-1-2.2-1c-0.8,0-1.6,0.3-2.2,0.9C30,15.1,29.7,16,29.7,17.3z M41.2,17.5v1.6c0,0.4,0,0.8,0,1.2c0,0.2,0.1,0.3,0.2,0.4
	c0.2,0.1,0.5,0.2,0.7,0.1h0.3v0.3h-3.5v-0.3h0.2c0.2,0,0.5,0,0.7-0.1c0.1-0.1,0.2-0.2,0.3-0.4c0-0.4,0.1-0.8,0.1-1.2v-3.8
	c0-0.4,0-0.8-0.1-1.2c0-0.1-0.1-0.3-0.2-0.4c-0.2-0.1-0.5-0.1-0.8-0.1h-0.1v-0.3l1,0c0.8,0,1.4,0,1.8,0c0.6,0,1.2,0,1.8,0.2
	c0.4,0.1,0.8,0.3,1.1,0.7c0.3,0.3,0.4,0.8,0.4,1.2c0,0.4-0.1,0.8-0.3,1.1c-0.2,0.3-0.5,0.6-0.8,0.7c-0.3,0.2-1,0.2-1.8,0.2
	L41.2,17.5L41.2,17.5z M41.2,17.2h0.6c0.4,0,0.7,0,1.1-0.1c0.3-0.1,0.5-0.3,0.7-0.6c0.2-0.3,0.3-0.7,0.3-1c0-0.5-0.1-1-0.5-1.4
	c-0.3-0.3-0.8-0.4-1.5-0.4c-0.3,0-0.5,0-0.6,0L41.2,17.2L41.2,17.2z M49,17.5v1.6c0,0.4,0,0.8,0,1.2c0,0.2,0.1,0.3,0.2,0.4
	c0.2,0.1,0.5,0.2,0.7,0.1h0.3v0.3h-3.6v-0.3H47c0.2,0,0.5,0,0.7-0.1c0.1-0.1,0.2-0.2,0.2-0.4c0-0.4,0.1-0.8,0-1.2v-3.8
	c0-0.4,0-0.8,0-1.2c0-0.1-0.1-0.3-0.2-0.4c-0.2-0.1-0.5-0.1-0.8-0.1h-0.1v-0.3l1,0c0.6,0,1.2,0,1.8,0c0.6,0,1.2,0,1.8,0.2
	c0.4,0.1,0.8,0.3,1.1,0.7c0.3,0.3,0.4,0.8,0.4,1.2c0,0.4-0.1,0.8-0.3,1.1c-0.2,0.3-0.5,0.6-0.8,0.7c-0.3,0.2-1,0.2-1.9,0.2L49,17.5
	L49,17.5z M49,17.2h0.6c0.4,0,0.7,0,1.1-0.1c0.3-0.1,0.5-0.3,0.7-0.6c0.2-0.3,0.3-0.7,0.3-1c0-0.6-0.2-1.1-0.5-1.4
	c-0.3-0.3-0.8-0.4-1.5-0.4c-0.3,0-0.5,0-0.6,0L49,17.2L49,17.2z M60.9,18.7h0.3L61,21.1h-6.4v-0.3h0.2c0.3,0,0.5,0,0.7-0.1
	c0.1-0.1,0.2-0.2,0.2-0.4c0-0.4,0.1-0.8,0-1.2v-3.8c0-0.4,0-0.8,0-1.2c0-0.2-0.1-0.3-0.2-0.4c-0.2-0.1-0.5-0.1-0.7-0.1v-0.3h5.5
	l0.2,1.9h-0.3c-0.1-0.4-0.2-0.8-0.5-1.1c-0.1-0.2-0.4-0.4-0.6-0.4c-0.4-0.1-0.8-0.1-1.2-0.1h-1.1v3.2h0.8c0.3,0,0.5,0,0.8-0.1
	c0.1,0,0.2-0.2,0.3-0.3c0.1-0.2,0.1-0.5,0.1-0.8h0.3v2.6h-0.3c0-0.3,0-0.6-0.1-0.8c-0.1-0.1-0.2-0.2-0.3-0.3
	c-0.2-0.1-0.5-0.1-0.7-0.1h-0.9V19c0,0.9,0.1,1.4,0.2,1.6c0.1,0.2,0.4,0.2,1,0.2h0.6c0.3,0,0.7,0,1-0.1c0.3-0.1,0.6-0.4,0.7-0.6
	C60.6,19.7,60.8,19.2,60.9,18.7z M71.3,21.1h-2.1c-0.4-0.3-0.9-0.9-1.7-2c-0.2-0.4-0.5-0.7-0.8-1c-0.2-0.2-0.3-0.4-0.5-0.6
	c-0.1-0.1-0.3-0.1-0.5-0.1h-0.3v1.7c0,0.6,0,1,0,1.2c0,0.2,0.1,0.3,0.2,0.4c0.2,0.1,0.5,0.2,0.7,0.1h0.4v0.3h-3.7v-0.3h0.3
	c0.2,0,0.5,0,0.7-0.1c0.1-0.1,0.2-0.2,0.3-0.4c0-0.4,0.1-0.8,0.1-1.2v-3.8c0-0.4,0-0.8-0.1-1.2c0-0.1-0.1-0.3-0.2-0.4
	c-0.2-0.1-0.5-0.1-0.8-0.1h-0.1v-0.3l1.1-0.1c0.7,0,1.3-0.1,1.8-0.1c0.6,0,1.2,0.1,1.8,0.2c0.4,0.1,0.8,0.3,1.1,0.7
	c0.3,0.3,0.4,0.7,0.4,1.1c0,0.5-0.2,1-0.6,1.3c-0.5,0.4-1,0.6-1.6,0.7c0.3,0.2,0.8,0.7,1.6,1.7c0.4,0.6,0.9,1.1,1.4,1.5
	c0.3,0.2,0.8,0.4,1.2,0.4L71.3,21.1L71.3,21.1z M65.5,17.1c0.3,0,0.6,0,0.9,0c0.3,0,0.5-0.1,0.8-0.1c0.2-0.1,0.4-0.2,0.6-0.3
	c0.1-0.1,0.3-0.3,0.3-0.5c0.1-0.3,0.1-0.5,0.1-0.8c0-0.5-0.1-0.9-0.4-1.3c-0.3-0.3-0.9-0.5-1.8-0.5c-0.1,0-0.3,0-0.5,0L65.5,17.1
	L65.5,17.1z M72.7,21v-2.5H73c0.3,1.6,1.1,2.4,2.3,2.4c0.5,0,0.9-0.1,1.3-0.5c0.3-0.3,0.5-0.6,0.5-1c0-0.4-0.1-0.7-0.4-1
	c-0.4-0.4-0.9-0.6-1.4-0.8c-0.5-0.2-1-0.4-1.4-0.7c-0.3-0.2-0.6-0.5-0.7-0.8c-0.2-0.3-0.3-0.7-0.3-1c0-0.5,0.2-1,0.6-1.4
	c0.4-0.4,0.9-0.6,1.5-0.5c0.3,0,0.6,0.1,0.9,0.2c0.3,0.1,0.6,0.4,0.9,0.7c0.2-0.2,0.3-0.4,0.3-0.7h0.3v2h-0.3
	c-0.1-0.5-0.4-1-0.8-1.4c-0.3-0.3-0.8-0.5-1.3-0.5c-0.4,0-0.7,0.1-1,0.4c-0.3,0.4-0.4,0.9-0.2,1.3c0.1,0.2,0.2,0.3,0.3,0.4
	c0.4,0.3,0.9,0.6,1.4,0.8c0.5,0.2,1,0.4,1.5,0.7c0.3,0.2,0.6,0.4,0.7,0.7c0.2,0.3,0.3,0.7,0.3,1.1c0,0.6-0.2,1.2-0.7,1.6
	c-0.5,0.4-1.1,0.7-1.8,0.6c-0.8,0-1.6-0.3-2.1-1C73.1,20.5,73,20.8,73,21L72.7,21L72.7,21z M94.4,15.3h-0.3l0-1.8h7.5l0,1.8h-0.2
	c0-0.4-0.2-0.8-0.4-1.1c-0.1-0.2-0.3-0.3-0.5-0.4c-0.3-0.1-0.6-0.1-0.9-0.1h-1.2v5.4c0,0.4,0,0.8,0,1.2c0,0.2,0.1,0.3,0.2,0.4
	c0.2,0.1,0.5,0.2,0.7,0.1h0.4v0.3H96v-0.3h0.4c0.2,0,0.5,0,0.7-0.1c0.1-0.1,0.2-0.2,0.2-0.4c0-0.4,0.1-0.8,0.1-1.2v-5.4h-1.1
	c-0.3,0-0.7,0-1,0.1c-0.2,0.1-0.4,0.2-0.5,0.4C94.5,14.5,94.4,14.9,94.4,15.3L94.4,15.3z M103.3,17.2c0-0.5,0.1-1.1,0.3-1.6
	c0.2-0.5,0.5-0.9,0.9-1.3c0.8-0.7,1.9-1.1,3-1.1c1.1,0,2.2,0.3,3,1.1c0.4,0.4,0.7,0.8,0.9,1.3s0.3,1,0.3,1.6c0,1.1-0.4,2.1-1.2,2.9
	c-0.8,0.8-1.9,1.2-3.1,1.1c-1.1,0-2.2-0.4-3-1.1c-0.4-0.4-0.7-0.8-0.9-1.3C103.4,18.3,103.3,17.8,103.3,17.2z M104.6,17.3
	c0,1.2,0.2,2.2,0.7,2.8c0.5,0.6,1.2,0.9,2.2,0.9c0.8,0,1.6-0.3,2.1-0.9c0.5-0.6,0.8-1.5,0.8-2.8c0-1.2-0.2-2.1-0.7-2.7
	c-0.5-0.7-1.3-1-2.2-1c-0.8,0-1.6,0.3-2.1,0.9C104.9,15.1,104.6,16,104.6,17.3z M116.3,17.5v1.6c0,0.6,0,1,0,1.2
	c0,0.2,0.1,0.3,0.2,0.4c0.2,0.1,0.5,0.2,0.7,0.1h0.3v0.3H114v-0.3h0.2c0.2,0,0.5,0,0.7-0.1c0.1-0.1,0.2-0.2,0.2-0.4
	c0-0.4,0.1-0.8,0.1-1.2v-3.8c0-0.4,0-0.8-0.1-1.2c0-0.1-0.1-0.3-0.2-0.4c-0.2-0.1-0.5-0.1-0.8-0.1H114v-0.3l1,0c0.8,0,1.4,0,1.8,0
	c0.6,0,1.2,0,1.8,0.2c0.4,0.1,0.8,0.3,1.1,0.7c0.3,0.3,0.4,0.8,0.4,1.2c0,0.4-0.1,0.8-0.3,1.1c-0.2,0.3-0.5,0.6-0.8,0.7
	c-0.3,0.2-1,0.2-1.9,0.2L116.3,17.5L116.3,17.5z M116.3,17.2h0.6c0.4,0,0.7,0,1.1-0.1c0.3-0.1,0.5-0.3,0.7-0.6
	c0.2-0.3,0.3-0.7,0.3-1c0-0.5-0.1-1-0.5-1.4c-0.3-0.3-0.8-0.4-1.5-0.4c-0.2,0-0.4,0-0.6,0V17.2L116.3,17.2z M8.9,21v-3.3h0.3
	c0.4,2.2,1.5,3.2,3.1,3.2c0.6,0,1.2-0.2,1.7-0.6c0.4-0.4,0.6-0.9,0.6-1.4c0-0.5-0.1-1-0.5-1.5c-0.6-0.5-1.2-0.9-1.9-1.1
	c-0.6-0.3-1.3-0.5-1.9-0.9c-0.4-0.2-0.8-0.6-1.1-1c-0.2-0.4-0.3-0.8-0.3-1.3c0-0.7,0.3-1.3,0.8-1.8c0.5-0.5,1.2-0.8,1.9-0.7
	c0.4,0,0.8,0.1,1.2,0.2c0.5,0.2,0.9,0.5,1.2,0.9c0.2-0.3,0.4-0.6,0.4-0.9h0.3v2.7h-0.3c-0.1-0.7-0.5-1.4-1-1.9
	C13,11.3,12.4,11,11.7,11c-0.5,0-1,0.1-1.4,0.5c-0.3,0.3-0.4,0.7-0.4,1.1c0,0.5,0.2,1,0.6,1.3c0.6,0.5,1.2,0.9,1.9,1.1
	c0.7,0.3,1.3,0.6,2,0.9c0.4,0.2,0.8,0.5,1,1c0.2,0.4,0.4,0.9,0.3,1.4c0,0.8-0.3,1.6-0.9,2.1c-0.7,0.6-1.5,0.9-2.4,0.8
	c-0.5,0-1.1-0.1-1.6-0.3c-0.5-0.2-0.9-0.5-1.3-1c-0.2,0.3-0.3,0.6-0.4,1C9.2,21,8.9,21,8.9,21z M85.6,21v-3.3h0.3
	c0.4,2.2,1.4,3.2,3.1,3.2c0.6,0,1.2-0.2,1.7-0.6c0.4-0.4,0.6-0.9,0.6-1.4c0-0.5-0.1-1-0.5-1.5c-0.6-0.5-1.2-0.9-1.9-1.1
	c-0.6-0.3-1.3-0.5-1.9-0.9c-0.4-0.2-0.8-0.6-1.1-1c-0.2-0.4-0.3-0.8-0.3-1.3c0-0.7,0.3-1.3,0.8-1.8c0.5-0.5,1.2-0.8,1.9-0.7
	c0.4,0,0.8,0.1,1.2,0.2c0.5,0.2,0.9,0.5,1.2,0.9c0.2-0.3,0.4-0.6,0.4-0.9h0.3v2.7h-0.3c-0.1-0.7-0.5-1.4-1-1.9
	C89.6,11.3,89,11,88.4,11c-0.5,0-1,0.1-1.4,0.5c-0.3,0.3-0.4,0.7-0.4,1.1c0,0.5,0.2,1,0.6,1.3c0.6,0.5,1.2,0.9,1.9,1.1
	c0.7,0.3,1.3,0.6,2,0.9c0.4,0.2,0.8,0.5,1,1c0.2,0.4,0.4,0.9,0.3,1.4c0,0.8-0.3,1.6-0.9,2.1c-0.7,0.6-1.5,0.9-2.4,0.8
	c-1.1,0-2.1-0.4-2.8-1.3c-0.2,0.3-0.3,0.6-0.4,1C85.9,21,85.6,21,85.6,21z"/>
<g>
	<path d="M17.1,20.9l0.4,0c0.4,0,0.5-0.1,0.6-0.1c0.1-0.1,0.1-0.2,0.2-0.3c0-0.1,0-0.4,0-1.2v-3.9c0-0.8,0-1.1,0-1.2
		c0-0.1-0.1-0.2-0.2-0.3c0,0-0.2-0.1-0.7-0.1h-0.3l-0.1-0.6l3.9-0.1l0.1,0.6h-0.4c-0.5,0-0.7,0.1-0.7,0.1c-0.1,0-0.1,0.1-0.2,0.3
		c0,0.1,0,0.4,0,1.2v1.4l3.9,0l0-1.4c0-0.6,0-1-0.1-1.2c0-0.1-0.1-0.2-0.1-0.3c0,0-0.2-0.1-0.7-0.1h-0.3l-0.1-0.6l4-0.1l0.1,0.6
		h-0.3c-0.5,0-0.6,0-0.7,0.1c-0.1,0-0.1,0.1-0.2,0.3c0,0.1,0,0.6,0,1.2v3.9c0,0.6,0,1,0,1.2c0,0.1,0.1,0.2,0.2,0.3
		c0,0,0.2,0.1,0.6,0.1h0.3l0.1,0.6h-4l-0.1-0.6l0.5,0c0.4,0,0.5-0.1,0.6-0.1c0.1-0.1,0.1-0.1,0.2-0.3c0-0.2,0.1-0.7,0.1-1.3v-1.8
		l-3.9,0l0,1.8c0,0.7,0,1,0,1.2c0,0.2,0.1,0.3,0.2,0.3c0,0,0.2,0.1,0.6,0.1H21l0.1,0.6l-3.9,0L17.1,20.9z"/>
	<path d="M32.1,21.7c-1.3,0-2.4-0.4-3.3-1.2c-0.9-0.8-1.3-1.9-1.3-3.2c0-1.3,0.4-2.3,1.3-3.1c0.9-0.8,1.9-1.2,3.2-1.2
		c1.3,0,2.4,0.4,3.3,1.2c0.9,0.8,1.3,1.8,1.3,3.2c0,1.3-0.4,2.3-1.3,3.1C34.5,21.3,33.5,21.7,32.1,21.7z M32.1,13.7
		c-0.9,0-1.6,0.3-2.1,0.9c-0.5,0.6-0.7,1.5-0.7,2.8c0,1.2,0.2,2.2,0.7,2.8c0.5,0.6,1.2,0.9,2.2,0.9c0.8,0,1.5-0.3,2-0.9
		c0.5-0.6,0.7-1.5,0.7-2.8c0-1.2-0.2-2.1-0.7-2.8C33.7,14,33,13.7,32.1,13.7z"/>
	<path d="M37.8,21.5l-0.1-0.6l0.4,0c0.4,0,0.6-0.1,0.6-0.1c0.1-0.1,0.1-0.1,0.2-0.3c0,0,0.1-0.3,0.1-1.2v-3.9c0-0.5,0-1-0.1-1.2
		c0-0.1-0.1-0.2-0.1-0.3c-0.1,0-0.2-0.1-0.7-0.1h-0.3l-0.1-0.6l1.5,0c0.7,0,1.2,0,1.6,0c0.9,0,1.5,0.1,2,0.2
		c0.5,0.1,0.9,0.4,1.2,0.7c0.3,0.4,0.5,0.8,0.5,1.4c0,0.5-0.1,0.9-0.3,1.3c-0.2,0.4-0.5,0.6-0.9,0.8c-0.4,0.2-1,0.3-2,0.3h-0.8
		l0,1.5c0,0.6,0,1.1,0,1.2c0,0.2,0.1,0.2,0.2,0.3c0.1,0,0.2,0.1,0.6,0.1h0.4l0.1,0.6H37.8z M40.9,17.1c0.5,0,0.8,0,1.1-0.1
		c0.2-0.1,0.4-0.2,0.6-0.5c0.2-0.3,0.2-0.6,0.2-1c0-0.6-0.1-1.1-0.4-1.3c-0.3-0.3-0.8-0.4-1.5-0.4c-0.2,0-0.3,0-0.5,0l0,3.4
		L40.9,17.1z"/>
	<path d="M45.7,21.5l-0.1-0.6l0.4,0c0.4,0,0.6-0.1,0.6-0.1c0.1-0.1,0.2-0.1,0.2-0.3c0-0.2,0-0.6,0-1.2v-3.9c0-0.6,0-1.1,0-1.2
		c0-0.1-0.1-0.2-0.2-0.3c-0.1,0-0.3-0.1-0.7-0.1h-0.3l-0.1-0.6l1.5,0c0.7,0,1.2,0,1.6,0c0.8,0,1.5,0.1,2,0.2
		c0.5,0.1,0.9,0.4,1.2,0.7c0.3,0.4,0.5,0.8,0.5,1.4c0,0.5-0.1,0.9-0.3,1.3c-0.2,0.4-0.5,0.6-0.9,0.8c-0.4,0.2-1,0.3-2,0.3h-0.7
		l0,1.5c0,0.7,0,1.1,0,1.2c0,0.1,0.1,0.2,0.2,0.3c0,0,0.2,0.1,0.6,0.1h0.4l0.1,0.6H45.7z M48.8,17.1c0.4,0,0.8,0,1.1-0.1
		c0.2-0.1,0.4-0.2,0.6-0.5c0.2-0.3,0.2-0.6,0.2-1c0-0.6-0.1-1.1-0.4-1.3c-0.3-0.3-0.8-0.4-1.4-0.4c-0.2,0-0.4,0-0.5,0l0,3.4
		L48.8,17.1z"/>
	<path d="M53.5,21.5l-0.1-0.7l0.4,0c0.5,0,0.6-0.1,0.6-0.1c0.1-0.1,0.2-0.2,0.2-0.3c0-0.1,0-0.5,0-1.2v-3.9c0-0.7,0-1,0-1.2
		c0-0.2-0.1-0.3-0.1-0.3c-0.1,0-0.2-0.1-0.7-0.1h-0.1l-0.1-0.6l6.1-0.1l0.3,2.3l-0.6,0.1l0-0.1c-0.2-0.6-0.3-1-0.5-1.2
		c-0.2-0.2-0.3-0.3-0.6-0.4c-0.2-0.1-0.6-0.1-1.2-0.1h-1l0,3l0.7,0c0.4,0,0.6,0,0.7-0.1c0.1-0.1,0.2-0.1,0.2-0.2
		c0-0.1,0.1-0.3,0.1-0.7v-0.1l0.6-0.1l0.1,3.1l-0.6,0.1l0-0.1c0-0.5-0.1-0.7-0.1-0.9c0-0.1-0.1-0.2-0.2-0.2c-0.1,0-0.4-0.1-0.7-0.1
		h-0.8l0,1.7c0,1.3,0.1,1.5,0.2,1.6c0,0,0.2,0.2,0.8,0.2h0.6c0.4,0,0.7-0.1,1-0.2c0.2-0.1,0.5-0.3,0.7-0.6c0.2-0.3,0.4-0.8,0.5-1.3
		l0-0.1l0.6-0.1l0,0.1h0l0,0.3l-0.1,2.6H53.5z"/>
	<path d="M61.7,20.9l0.5,0c0.4,0,0.6-0.1,0.6-0.1c0.1-0.1,0.2-0.1,0.2-0.3c0-0.2,0-0.7,0-1.2v-3.9c0-0.6,0-1,0-1.2
		c0-0.1-0.1-0.2-0.1-0.3c0,0-0.2-0.1-0.7-0.1h-0.3l-0.1-0.6l1.3-0.1c0.7,0,1.3-0.1,1.8-0.1c0.8,0,1.4,0.1,1.9,0.2
		c0.5,0.2,0.9,0.4,1.2,0.7c0.3,0.3,0.5,0.8,0.5,1.3c0,0.6-0.2,1.1-0.6,1.5c-0.3,0.3-0.8,0.5-1.4,0.7c0.3,0.3,0.8,0.8,1.3,1.5
		c0.6,0.8,1.1,1.3,1.4,1.6c0.3,0.2,0.7,0.4,1.1,0.4l0.1,0l0.1,0.6h-2.4l0,0c-0.4-0.3-1-1-1.8-2.2c-0.2-0.3-0.5-0.6-0.8-1
		c-0.3-0.4-0.5-0.5-0.5-0.6c-0.1-0.1-0.2-0.1-0.4-0.1h-0.2l0,1.6c0,0.6,0,1,0,1.2c0,0.1,0.1,0.2,0.2,0.3c0.1,0.1,0.3,0.1,0.6,0.1
		h0.5l0.1,0.6l-4.2,0L61.7,20.9z M64.5,17l0.1,0c0.2,0,0.4,0,0.6,0c0.3,0,0.5-0.1,0.8-0.1c0.2-0.1,0.4-0.2,0.5-0.3
		c0.1-0.1,0.2-0.3,0.3-0.5c0.1-0.2,0.1-0.5,0.1-0.8c0-0.5-0.1-0.9-0.4-1.2c-0.2-0.3-0.8-0.4-1.7-0.4c-0.1,0-0.2,0-0.4,0L64.5,17z"/>
	<path d="M74.7,21.7c-0.9,0-1.6-0.3-2.2-0.9c-0.1,0.1-0.1,0.3-0.2,0.5l0,0.1l-0.6,0.1l-0.1-2.9l0.6-0.1l0,0.1
		c0.4,1.6,1.1,2.4,2.3,2.4c0.5,0,0.9-0.1,1.2-0.4c0.3-0.3,0.4-0.6,0.4-1c0-0.3-0.1-0.6-0.4-0.9c-0.3-0.3-0.7-0.5-1.4-0.8
		c-0.7-0.3-1.2-0.6-1.5-0.7c-0.4-0.2-0.6-0.5-0.8-0.9c-0.2-0.4-0.3-0.7-0.3-1.1c0-0.6,0.2-1.2,0.6-1.6c0.4-0.4,1-0.6,1.6-0.6
		c0.4,0,0.7,0.1,1,0.2c0.3,0.1,0.6,0.3,0.8,0.6c0.1-0.1,0.1-0.3,0.1-0.4l0-0.1l0.6-0.1l0,2.4l-0.5,0.1l0-0.1
		c-0.2-0.6-0.4-1.1-0.8-1.4c-0.4-0.3-0.7-0.5-1.2-0.5c-0.4,0-0.7,0.1-0.9,0.3c-0.2,0.2-0.3,0.5-0.3,0.7c0,0.3,0.1,0.6,0.4,0.8
		c0.2,0.2,0.7,0.5,1.4,0.8c0.7,0.3,1.2,0.5,1.5,0.8c0.3,0.2,0.6,0.5,0.8,0.8c0.2,0.4,0.3,0.8,0.3,1.2c0,0.7-0.3,1.3-0.7,1.8
		C76.1,21.4,75.5,21.7,74.7,21.7z"/>
	<path d="M96.4,21.5l-0.1-0.6l0.6,0c0.4,0,0.5-0.1,0.6-0.1c0.1-0.1,0.1-0.2,0.2-0.3c0-0.2,0-0.6,0-1.2v-5.5l-1,0c-0.4,0-0.8,0-1,0.1
		c-0.1,0-0.3,0.2-0.4,0.4c-0.1,0.2-0.2,0.6-0.3,1.1l0,0.1l-0.6,0.1l0-2.3l8.1-0.1l0.1,2.2l-0.5,0.1l0-0.1c-0.1-0.6-0.3-0.9-0.4-1.1
		c-0.1-0.2-0.3-0.3-0.4-0.4c-0.1,0-0.4-0.1-0.9-0.1h-1.1l0,5.5c0,0.6,0,1,0,1.2c0,0.1,0.1,0.3,0.2,0.3c0.1,0,0.2,0.1,0.6,0.1h0.5
		l0.1,0.6H96.4z"/>
	<path d="M108.2,21.7c-1.3,0-2.4-0.4-3.3-1.2c-0.8-0.8-1.3-1.9-1.3-3.2c0-1.3,0.4-2.3,1.3-3.1c0.9-0.8,1.9-1.2,3.2-1.2
		c1.3,0,2.4,0.4,3.2,1.2c0.9,0.8,1.3,1.8,1.3,3.2c0,1.3-0.4,2.3-1.3,3.1C110.6,21.3,109.5,21.7,108.2,21.7z M108.2,13.7
		c-0.9,0-1.6,0.3-2.1,0.9c-0.5,0.6-0.7,1.5-0.7,2.8c0,1.3,0.2,2.2,0.7,2.8c0.5,0.6,1.2,0.9,2.2,0.9c0.8,0,1.5-0.3,2-0.9
		c0.5-0.6,0.7-1.5,0.7-2.8c0-1.2-0.2-2.1-0.7-2.8C109.8,14,109.1,13.7,108.2,13.7z"/>
	<path d="M113.8,21.5l-0.1-0.6l0.4,0c0.3,0,0.5,0,0.6-0.1c0.1-0.1,0.2-0.1,0.2-0.3c0-0.2,0-0.6,0-1.2v-3.9c0-0.7,0-1,0-1.2
		c0-0.1-0.1-0.2-0.2-0.3c0,0-0.2-0.1-0.7-0.1h-0.3l-0.1-0.6l1.5,0c0.7,0,1.2,0,1.6,0c0.9,0,1.5,0.1,2,0.2c0.5,0.1,0.9,0.4,1.2,0.7
		c0.3,0.4,0.5,0.8,0.5,1.4c0,0.5-0.1,0.9-0.3,1.3c-0.2,0.4-0.5,0.7-0.9,0.8c-0.4,0.2-1,0.3-2,0.3h-0.7l0,1.5c0,0.9,0,1.2,0,1.2
		c0,0.1,0.1,0.2,0.2,0.3c0,0,0.2,0.1,0.6,0.1h0.4l0.1,0.6H113.8z M116.8,17.1c0.4,0,0.8,0,1.1-0.1c0.2-0.1,0.5-0.2,0.6-0.5
		c0.2-0.3,0.3-0.6,0.3-1c0-0.6-0.1-1-0.4-1.3c-0.3-0.3-0.8-0.4-1.5-0.4c-0.2,0-0.4,0-0.5,0l0,3.4L116.8,17.1z"/>
	<path d="M12.5,21.7c-1.1,0-2.1-0.4-2.9-1.2c-0.1,0.2-0.2,0.5-0.2,0.8l0,0.1l-0.6,0.1l0-3.8l0.6-0.1l0,0.1c0.5,2.2,1.5,3.3,3,3.3
		c0.7,0,1.3-0.2,1.7-0.6c0.4-0.4,0.6-0.8,0.6-1.3c0-0.6-0.2-1.1-0.4-1.4c-0.3-0.3-1-0.7-2-1.1c-0.8-0.3-1.5-0.6-2-0.9
		C9.7,15.3,9.2,15,9,14.5c-0.3-0.6-0.3-1.1-0.3-1.4c0-0.8,0.3-1.5,0.8-2c0.6-0.5,1.3-0.8,2.1-0.8c0.5,0,0.9,0.1,1.3,0.2
		c0.4,0.1,0.8,0.4,1.2,0.8c0.1-0.2,0.2-0.5,0.2-0.7l0-0.1l0.6-0.1l0.1,3.1l-0.6,0.1l0-0.1c-0.3-0.9-0.6-1.5-1-1.9
		c-0.5-0.4-1-0.7-1.7-0.7c-0.6,0-1.1,0.2-1.4,0.5c-0.3,0.3-0.4,0.7-0.4,1.1c0,0.5,0.2,0.9,0.5,1.2c0.4,0.3,1,0.7,2,1.2
		c1,0.4,1.6,0.7,2,1c0.5,0.3,0.9,0.6,1.1,1c0.3,0.5,0.4,0.9,0.4,1.5c0,1-0.3,1.7-1,2.4C14.4,21.4,13.5,21.7,12.5,21.7z"/>
	<path d="M90,21.7c-1.1,0-2.1-0.4-2.9-1.2c-0.1,0.2-0.2,0.5-0.2,0.8l0,0.1l-0.6,0.1l0-3.8l0.6-0.1l0,0.1c0.5,2.2,1.5,3.3,3.1,3.3
		c0.7,0,1.3-0.2,1.6-0.6c0.4-0.4,0.6-0.8,0.6-1.3c0-0.6-0.2-1.1-0.4-1.4c-0.3-0.3-1-0.7-2-1.1c-0.8-0.3-1.5-0.6-2-0.9
		c-0.5-0.3-0.9-0.6-1.2-1.1c-0.3-0.5-0.3-1.1-0.3-1.4c0-0.8,0.3-1.5,0.8-2c0.6-0.5,1.3-0.8,2.1-0.8c0.5,0,0.9,0.1,1.3,0.2
		c0.4,0.2,0.8,0.4,1.2,0.8c0.1-0.3,0.2-0.5,0.2-0.7l0-0.1l0.6-0.1l0,3.1L92,13.6l0-0.1c-0.3-0.9-0.6-1.5-1-1.9
		c-0.5-0.4-1-0.7-1.7-0.7c-0.6,0-1.1,0.2-1.3,0.5c-0.3,0.3-0.4,0.7-0.4,1.1c0,0.5,0.2,0.9,0.5,1.2c0.4,0.4,1.1,0.8,2,1.2
		c1.1,0.5,1.7,0.8,2,1c0.5,0.3,0.9,0.6,1.1,1c0.3,0.5,0.4,0.9,0.4,1.5c0,1-0.3,1.8-1,2.4C91.9,21.4,91,21.7,90,21.7z"/>
</g>
</svg>
